<svg xmlns="http://www.w3.org/2000/svg" width="147" height="33" viewBox="0 0 147 33">
    <g fill="#FFF" fill-rule="evenodd">
        <path fill-opacity=".01" d="M0 0h32v32H0z"/>
        <g fill-rule="nonzero">
            <path d="M137.767 21.238c.398.388.867.696 1.381.908a4.75 4.75 0 0 0 1.904.361 3.861 3.861 0 0 0 1.518-.249.847.847 0 0 0 .573-.821.917.917 0 0 0-.523-.871 4.735 4.735 0 0 0-.896-.398 15.577 15.577 0 0 0-1.543-.423c-.423-.108-.838-.24-1.244-.399a4.69 4.69 0 0 1-1.208-.684 3.69 3.69 0 0 1-.92-1.045 2.803 2.803 0 0 1-.361-1.456 2.897 2.897 0 0 1 .423-1.556c.282-.456.66-.847 1.107-1.144a5.472 5.472 0 0 1 1.543-.71 6.196 6.196 0 0 1 1.73-.249c.886-.018 1.77.091 2.626.324a6.249 6.249 0 0 1 1.954.97l-1.519 2.066a5.105 5.105 0 0 0-1.244-.634c-.584-.203-1.2-.3-1.817-.287a2.508 2.508 0 0 0-1.456.312.926.926 0 0 0-.41.759c0 .365.228.651.684.858.689.282 1.4.503 2.128.66a9.422 9.422 0 0 1 1.605.497 4.45 4.45 0 0 1 1.22.747c.334.292.602.653.783 1.058.194.46.287.957.274 1.456a2.988 2.988 0 0 1-.398 1.53 3.59 3.59 0 0 1-1.082 1.158 5.413 5.413 0 0 1-1.593.734 6.959 6.959 0 0 1-1.93.261 8.948 8.948 0 0 1-2.96-.46A4.935 4.935 0 0 1 136 23.154l1.767-1.916zM44.525 16.514l-5.3-8.014h3.782l3.46 5.426L49.8 8.5h3.41l-5.102 7.94 5.7 8.66h-3.784l-3.832-6.047L42.41 25.1H39zM65.523 22.881l-.41.411a4.9 4.9 0 0 1-.97.71 7.54 7.54 0 0 1-1.618.671 8.15 8.15 0 0 1-2.352.299 6.594 6.594 0 0 1-2.539-.473 5.576 5.576 0 0 1-3.198-3.31 7.366 7.366 0 0 1-.435-2.588 6.505 6.505 0 0 1 .435-2.402 5.867 5.867 0 0 1 1.22-1.929 5.711 5.711 0 0 1 1.866-1.294 5.94 5.94 0 0 1 2.402-.473 5.725 5.725 0 0 1 2.7.585 5.017 5.017 0 0 1 1.78 1.53c.455.647.784 1.373.97 2.141.2.798.3 1.617.3 2.439v.423h-8.712c-.006.408.093.811.287 1.17.187.345.44.65.746.896.312.252.666.445 1.046.572.372.13.762.197 1.156.2a5.906 5.906 0 0 0 2.564-.536 3.47 3.47 0 0 0 .734-.448c.191-.157.336-.286.436-.385l1.592 1.791zm-2.861-5.375a2.538 2.538 0 0 0-.684-1.705 2.651 2.651 0 0 0-.86-.598 2.872 2.872 0 0 0-1.194-.236 3.27 3.27 0 0 0-1.282.236c-.345.14-.662.343-.933.598-.241.23-.436.505-.573.809a2.192 2.192 0 0 0-.199.896h5.725zM67 8.5h2.937v5.725a4.019 4.019 0 0 1 1.145-.673 5.039 5.039 0 0 1 2.04-.373 5.137 5.137 0 0 1 2.253.473c.64.304 1.212.736 1.68 1.27a5.411 5.411 0 0 1 1.058 1.89c.243.748.365 1.53.36 2.316a6.637 6.637 0 0 1-.46 2.476 5.902 5.902 0 0 1-1.32 2.016 6.377 6.377 0 0 1-2.077 1.369c-.87.35-1.8.524-2.738.51a14.72 14.72 0 0 1-2.8-.249A15.885 15.885 0 0 1 67 24.727V8.5zm2.937 14.211c.234.084.476.147.722.187.387.05.778.07 1.17.062a3.694 3.694 0 0 0 1.567-.31 3.466 3.466 0 0 0 1.854-2.04c.157-.454.237-.93.237-1.408a5.142 5.142 0 0 0-.162-1.294 3.33 3.33 0 0 0-.51-1.107 2.564 2.564 0 0 0-.884-.772 2.686 2.686 0 0 0-1.282-.286 2.752 2.752 0 0 0-2.028.684 2.54 2.54 0 0 0-.684 1.88v4.404zM81 13.5h2.937v11.673H81zM93.641 23.476c-.4.443-.892.792-1.443 1.021a5.11 5.11 0 0 1-2.165.448 4.72 4.72 0 0 1-1.431-.224 4.038 4.038 0 0 1-1.295-.684 3.423 3.423 0 0 1-.945-1.183A3.74 3.74 0 0 1 86 21.162a4.091 4.091 0 0 1 .373-1.78c.242-.514.6-.965 1.045-1.319a4.635 4.635 0 0 1 1.618-.808 7.504 7.504 0 0 1 2.09-.274 26.074 26.074 0 0 1 1.594.05l.92.05v-.274a1.593 1.593 0 0 0-.696-1.37 3.057 3.057 0 0 0-1.817-.497 5.091 5.091 0 0 0-1.991.324c-.459.194-.9.428-1.32.696l-1.343-1.99c.232-.166.497-.336.796-.51.333-.19.683-.349 1.045-.474.45-.154.912-.27 1.382-.348a10.786 10.786 0 0 1 1.829-.137 6.24 6.24 0 0 1 2.028.311c.57.188 1.098.483 1.556.871.427.369.767.828.995 1.344a4.15 4.15 0 0 1 .349 1.705v7.84h-2.738l-.075-1.096zm0-4.18l-.87-.05a20.875 20.875 0 0 0-1.395-.05 2.814 2.814 0 0 0-1.99.56c-.362.328-.57.793-.573 1.281-.02.454.179.89.535 1.17a2.51 2.51 0 0 0 1.58.423 3.031 3.031 0 0 0 1.867-.647c.244-.193.45-.43.61-.697.155-.255.236-.548.236-.846v-1.145zM99 8.5h3.136v13.813h8.188v2.788H99zM118.641 23.476c-.4.443-.892.792-1.443 1.021a5.11 5.11 0 0 1-2.165.448 4.72 4.72 0 0 1-1.431-.224 4.038 4.038 0 0 1-1.295-.684 3.423 3.423 0 0 1-.945-1.183 3.74 3.74 0 0 1-.361-1.692 4.09 4.09 0 0 1 .373-1.78c.242-.514.6-.965 1.045-1.319a4.635 4.635 0 0 1 1.618-.808 7.504 7.504 0 0 1 2.09-.274 26.074 26.074 0 0 1 1.594.05l.92.05v-.274a1.593 1.593 0 0 0-.696-1.37 3.057 3.057 0 0 0-1.817-.497 5.091 5.091 0 0 0-1.991.324c-.459.194-.9.428-1.32.696l-1.343-1.99c.232-.166.497-.336.796-.51.333-.19.683-.349 1.045-.474.45-.154.912-.27 1.382-.348a10.785 10.785 0 0 1 1.83-.137 6.24 6.24 0 0 1 2.027.311c.57.188 1.098.483 1.556.871.428.369.768.828.995 1.344.236.537.354 1.118.349 1.705v7.84h-2.738l-.075-1.096zm0-4.18l-.87-.05a20.875 20.875 0 0 0-1.395-.05 2.814 2.814 0 0 0-1.99.56c-.362.328-.57.793-.573 1.281-.02.454.179.89.535 1.17a2.51 2.51 0 0 0 1.58.423 3.031 3.031 0 0 0 1.867-.647c.244-.193.45-.43.61-.697.155-.255.236-.548.236-.846v-1.145zM124 8.5h2.937v5.725a4.019 4.019 0 0 1 1.145-.673 5.04 5.04 0 0 1 2.04-.373 5.137 5.137 0 0 1 2.253.473c.64.304 1.212.736 1.68 1.27a5.411 5.411 0 0 1 1.058 1.89c.243.748.365 1.53.36 2.316a6.637 6.637 0 0 1-.46 2.476 5.902 5.902 0 0 1-1.32 2.016 6.377 6.377 0 0 1-2.077 1.369c-.87.35-1.8.524-2.738.51a14.72 14.72 0 0 1-2.8-.249 15.886 15.886 0 0 1-2.078-.523V8.5zm2.937 14.211c.234.084.476.147.722.187.387.05.779.07 1.17.062a3.694 3.694 0 0 0 1.567-.31 3.466 3.466 0 0 0 1.854-2.04c.157-.454.237-.93.237-1.408a5.142 5.142 0 0 0-.162-1.294 3.33 3.33 0 0 0-.51-1.107 2.564 2.564 0 0 0-.884-.772 2.686 2.686 0 0 0-1.282-.286 2.752 2.752 0 0 0-2.028.684 2.54 2.54 0 0 0-.684 1.88v4.404zM81 8.5h3.136v3.086H81z"/>
        </g>
        <path fill-opacity=".01" d="M0 1h32v32H0z"/>
        <path fill-rule="nonzero" d="M28.429 23.983l-12.113.07-2.413-4.033-2.245 3.45c-.217.257-.434.513-.675.513H7.87l8.035-13.476c.218-.256.459-.513.676-.513h3.137l-3.813 6.529 3.813 6.271v-12.8h2.63a.757.757 0 0 1 .724.747v10.235h2.896a.761.761 0 0 1 .675.256l1.786 2.751zM12.117 9.994l1.786 3.008-2.003 3.264-4.03-6.272h4.247zM26.837 3C30.89 3 32 4.19 32 6.31v24.458c0 .21 0 .21-.193.21H7.653c-1.327 0-2.408-.267-3.292-1.068a3.966 3.966 0 0 1-1.317-3.106V5h1.979v21.315c-.079.638.506 1.667.977 2.121.47.455 1.21.64 1.87.564H30c.193 0 .193-.354.193-.564L30 7.663C30 6.567 29.587 5 27.174 5H10L7.87 3h18.966zM4.31 3.117a696.829 696.829 0 0 1 3.626 3.445c.08.083.08.18 0 .293-.688.667-1.064 1.024-1.127 1.071-.063.047-.166.047-.31 0L4.287 5.821l-.272-.258-.272.258a254.6 254.6 0 0 1-2.254 2.142c-.06.05-.163.05-.31 0-.68-.63-1.056-.986-1.126-1.07-.07-.085-.07-.182 0-.293l3.665-3.483a.433.433 0 0 1 .593 0z"/>
    </g>
</svg>
