<svg xmlns="http://www.w3.org/2000/svg" width="32" height="32" viewBox="0 0 32 32">
    <g fill="none" fill-rule="evenodd">
        <path fill="#FFF" d="M26.017 23.01l-10.616.068-2.114-3.895-1.967 3.332c-.19.248-.38.496-.592.496H8l7.042-13.014c.19-.247.402-.495.592-.495h2.75l-3.342 6.304 3.341 6.056V9.502h2.305c.357.024.635.34.634.72v9.884h2.538a.636.636 0 0 1 .592.248l1.565 2.657zM11.722 9.502l1.565 2.904-1.755 3.152L8 9.502zM2.152 8.2l-.996-.996a.533.533 0 0 1 0-.754l3.241-3.242a.71.71 0 0 1 1.005 0L8.61 6.415a.533.533 0 0 1 0 .754l-.997.995a.533.533 0 0 1-.753 0l-1.96-1.959L2.906 8.2a.533.533 0 0 1-.753 0z"/>
        <path fill="#FFF" d="M29 29l-2-2c.015-.015.015-6.613 0-19.794 0-.989-.53-2.04-2.47-2.04H11L9 3h15.258C27.518 3 29 4.072 29 5.986c.015 15.328.015 22.999 0 23.014z"/>
        <path fill="#FFF" d="M29 29l-20.885.176c-.97.103-2.344-.045-3.056-.712-.712-.667-.983-1.313-.944-2.288L4 5h1.941l.174 20.176c-.063.532-.053 1.358.326 1.736.378.379 1.142.328 1.674.264L27 26.912 29 29z"/>
        <path fill="#08B153" fill-rule="nonzero" d="M32.001 32h-26.7a5.42 5.42 0 0 1-5.3-5.52V5.52A5.42 5.42 0 0 1 5.301 0h21.28a5.42 5.42 0 0 1 5.42 5.52V32z"/>
        <path fill="#FFF" fill-rule="nonzero" d="M25.04 22L15 22.06l-2-3.46-1.86 2.96c-.18.22-.36.44-.56.44H8l6.66-11.56c.18-.22.38-.44.56-.44h2.6l-3.16 5.6 3.16 5.38V10H20a.64.64 0 0 1 .6.64v8.78H23a.62.62 0 0 1 .56.22L25.04 22zM11.52 10L13 12.58l-1.66 2.8L8 10z"/>
        <path fill="#FFF" d="M5.31 4.117a696.829 696.829 0 0 1 3.626 3.445c.08.083.08.18 0 .293-.688.667-1.064 1.024-1.127 1.071-.063.047-.166.047-.31 0L5.287 6.821l-.272-.258-.272.258a254.6 254.6 0 0 1-2.254 2.142c-.06.05-.163.05-.31 0-.68-.63-1.056-.986-1.126-1.07-.07-.085-.07-.182 0-.293l3.665-3.483a.433.433 0 0 1 .593 0z"/>
        <path fill="#FFF" fill-rule="nonzero" d="M25.979 25.982l-.002-.002c.023-.021.023-.066.023-.16V8c0-.94 0-2-2-2H10L8 4h15.72C27.08 4 28 5.02 28 6.84v20.98c0 .092 0 .137-.021.159l.001.001c-.02.02-.06.02-.137.02H7.823a3.46 3.46 0 0 1-3.82-3.58V6h2v18a1.8 1.8 0 0 0 2 2h17.84c.075 0 .115 0 .136-.018z"/>
    </g>
</svg>
